<svg xmlns="http://www.w3.org/2000/svg" width="400" height="560" viewBox="0 0 400 560"><defs><linearGradient id="bg" x1="0%" y1="0%" x2="100%" y2="100%"><stop offset="0%" style="stop-color:#4a1942"/><stop offset="100%" style="stop-color:#89375f"/></linearGradient><linearGradient id="glow" x1="0%" y1="0%" x2="100%" y2="100%"><stop offset="0%" style="stop-color:#ce7bb0;stop-opacity:0.3"/><stop offset="100%" style="stop-color:#ce7bb0;stop-opacity:0"/></linearGradient></defs><rect width="400" height="560" fill="url(#bg)"/><rect width="400" height="560" fill="url(#glow)"/><path d="M120,168 C140,112 180,112 200,168 C220.00000000000003,112 260,112 280,168 C300,224 280,280 200,336 C120,280 100,224 120,168" fill="rgba(255,200,210,0.06)"/><rect x="0" y="510" width="400" height="50" fill="rgba(0,0,0,0.2)"/><text x="20" y="540" fill="rgba(255,255,255,0.5)" font-size="12">43章</text><text x="380" y="540" text-anchor="end" fill="rgba(255,255,255,0.5)" font-size="12">已完结</text><rect x="20" y="20" rx="12" ry="12" width="48" height="24" fill="#f7c8d2" opacity="0.85"/><text x="30" y="36" fill="#fff" font-size="12" font-weight="600">言情</text><path d="M200,197.20000000000002 C158,161.20000000000002 182,143.20000000000002 200,167.20000000000002 C218,143.20000000000002 242,161.20000000000002 200,197.20000000000002" fill="rgba(247,200,210,0.15)" stroke="rgba(247,200,210,0.3)" stroke-width="1.5"/><text x="200" y="313.6" text-anchor="middle" fill="#fff" font-size="30" font-weight="700">何以笙箫默</text><line x1="120" y1="364" x2="280" y2="364" stroke="rgba(255,255,255,0.15)" stroke-width="1"/><text x="200" y="403.2" text-anchor="middle" fill="rgba(255,255,255,0.5)" font-size="14">顾漫</text><text x="200" y="442.40000000000003" text-anchor="middle" fill="#f5a623" font-size="16" font-weight="600">★ 4.4</text></svg>